<?xml version="1.0" encoding="UTF-8"?>
<svg id="Ebene_1" data-name="Ebene 1" xmlns="http://www.w3.org/2000/svg" xmlns:xlink="http://www.w3.org/1999/xlink" viewBox="0 0 1492.46 649.74">
  <defs>
    <style>
      .cls-1 {
        fill: url(#Unbenannter_Verlauf_2);
      }

      .cls-2 {
        fill: #9dc3fa;
      }
    </style>
    <radialGradient id="Unbenannter_Verlauf_2" data-name="Unbenannter Verlauf 2" cx="325.25" cy="324.79" fx="325.25" fy="324.79" r="162.62" gradientUnits="userSpaceOnUse">
      <stop offset=".43" stop-color="#9dc2fc"/>
      <stop offset=".68" stop-color="#5c34ea"/>
      <stop offset=".93" stop-color="#000030"/>
    </radialGradient>
  </defs>
  <g>
    <polygon class="cls-2" points="729.24 243.65 696.44 243.65 651.2 304.42 605.97 243.65 573.17 243.65 633.25 322.03 569.72 405.93 602.52 405.93 651.2 341.37 699.89 405.93 732.69 405.93 669.16 322.03 729.24 243.65"/>
    <path class="cls-2" d="M855.77,249.52c-11.51-6.22-25.21-9.32-41.09-9.32-14.97,0-28.55,3.45-40.74,10.36-12.2,6.91-21.87,16.69-29.01,29.35-7.14,12.66-10.7,27.62-10.7,44.89s3.68,33.21,11.05,45.75c7.37,12.55,17.49,22.16,30.39,28.83,12.89,6.68,27.39,10.01,43.5,10.01,12.89,0,24.86-1.9,35.91-5.7,11.05-3.8,20.94-9.5,29.69-17.09l-11.05-21.06c-7.6,6.22-15.48,10.99-23.65,14.33-8.17,3.34-17.67,5.01-28.49,5.01s-20.83-1.95-29.35-5.87c-8.52-3.91-15.25-9.72-20.2-17.44-4.95-7.71-8-17.09-9.15-28.14h123.27c1.61-2.76,2.93-6.39,3.97-10.88,1.04-4.49,1.55-8.57,1.55-12.26,0-13.35-3.11-25.26-9.32-35.74-6.22-10.47-15.08-18.82-26.59-25.03ZM863.02,308.56c0,.46-.12.92-.35,1.38h-99.78c2.07-9.67,5.64-17.83,10.7-24.51,5.06-6.67,11.27-11.79,18.64-15.36,7.36-3.57,15.19-5.35,23.48-5.35,10.58,0,19.39,1.73,26.41,5.18,7.02,3.45,12.26,8.35,15.71,14.67,3.45,6.33,5.18,13.64,5.18,21.93v2.07Z"/>
    <path class="cls-2" d="M1099.19,240.2c-12.43,0-23.43,2.48-32.98,7.42-9.55,4.95-16.86,12.26-21.93,21.93-3.92-9.2-10.01-16.4-18.3-21.58-8.29-5.18-18.42-7.77-30.39-7.77s-21.7,2.3-29.87,6.91c-8.17,4.61-14.56,11.05-19.16,19.33v-22.79h-26.93v162.28h27.97v-82.87c0-17.96,3.45-32.17,10.36-42.64,6.91-10.47,17.15-15.71,30.73-15.71,11.51,0,20.37,3.51,26.59,10.53,6.22,7.02,9.32,18.36,9.32,34.01v96.68h27.97v-82.87c0-17.96,3.51-32.17,10.53-42.64,7.02-10.47,17.21-15.71,30.56-15.71,11.74,0,20.72,3.51,26.93,10.53,6.22,7.02,9.32,18.36,9.32,34.01v96.68h27.97v-99.79c0-22.79-5.3-39.47-15.88-50.06-10.59-10.59-24.86-15.88-42.81-15.88Z"/>
    <path class="cls-2" d="M1282.09,305.23l48.09-61.59h-32.79l-29.09,37.24-6.96,8.9-1.89,2.42c-12.75-17.05-26.68-33.27-41.71-48.55h-38.55c23.63,21.32,44.78,44.9,63.21,70.4l-71.75,91.88h32.82l56.03-71.79c14.37,22.68,26.68,46.69,36.81,71.79h28.66c-12.55-33.22-28.67-64.72-48.08-94.05l5.19-6.65Z"/>
  </g>
  <g>
    <path class="cls-1" d="M325.34,487.42h0ZM309.82,471.91c-.01-8.58,6.93-15.54,15.51-15.54h0c8.56,0,15.52,6.95,15.52,15.51h0c.01,8.58-6.93,15.54-15.51,15.54h0c-8.58,0-15.52-6.95-15.52-15.51ZM283.26,481.94c-8.28-2.21-13.21-10.72-10.99-19h0c2.2-8.28,10.71-13.21,18.99-11h0c8.29,2.2,13.22,10.71,11.01,18.99h0c-1.85,6.95-8.12,11.53-14.99,11.53h0c-1.32,0-2.67-.17-4.01-.52ZM348.4,470.91c-2.21-8.28,2.7-16.79,10.98-19h0c8.28-2.22,16.79,2.69,19,10.98h0c2.23,8.28-2.69,16.79-10.97,19h0c-1.35.36-2.7.53-4.04.53h0c-6.86,0-13.13-4.57-14.98-11.51ZM244.02,465.7c-7.42-4.28-9.96-13.78-5.68-21.2h0c4.29-7.43,13.79-9.96,21.2-5.68h.01c7.41,4.29,9.96,13.78,5.67,21.2h0c-2.87,4.98-8.08,7.76-13.45,7.76h0c-2.63,0-5.3-.67-7.75-2.08ZM385.42,459.95c-4.29-7.41-1.76-16.91,5.65-21.2h0c7.42-4.29,16.92-1.77,21.21,5.65h0c4.29,7.41,1.76,16.92-5.65,21.21h0c-2.45,1.41-5.12,2.08-7.77,2.08h0c-5.35,0-10.57-2.77-13.44-7.75ZM210.35,439.87h0c-6.07-6.05-6.07-15.89-.01-21.95h0c6.05-6.07,15.88-6.07,21.95-.01h0c6.07,6.05,6.07,15.89.01,21.95h0c-3.03,3.04-7.01,4.55-10.98,4.55h0c-3.97,0-7.94-1.51-10.97-4.54ZM418.31,439.76c-6.05-6.05-6.07-15.89,0-21.95h0c6.07-6.07,15.88-6.07,21.95,0h0c6.07,6.05,6.07,15.88,0,21.95h0c-3.03,3.03-7,4.54-10.97,4.54h0c-3.97,0-7.96-1.51-10.98-4.54ZM184.48,406.25c-4.31-7.41-1.77-16.91,5.64-21.21h0c7.41-4.29,16.92-1.77,21.21,5.64h0c4.29,7.43,1.77,16.92-5.64,21.21h0c-2.46,1.42-5.13,2.1-7.77,2.1h0c-5.35,0-10.57-2.77-13.44-7.74ZM444.91,411.77c-7.42-4.29-9.96-13.79-5.67-21.21h0c4.29-7.41,13.79-9.96,21.2-5.67h0c7.42,4.29,9.96,13.79,5.67,21.21h0c-2.87,4.97-8.08,7.75-13.44,7.75h0c-2.64,0-5.32-.67-7.76-2.08ZM168.18,367.03c-2.22-8.28,2.68-16.79,10.97-19.01h0c8.28-2.21,16.79,2.69,19.01,10.97h0c2.21,8.29-2.69,16.8-10.97,19.03h0c-1.35.35-2.7.53-4.04.53h0c-6.86,0-13.13-4.58-14.98-11.51ZM463.37,377.85c-8.28-2.21-13.19-10.72-10.98-19h0c2.21-8.29,10.72-13.21,19-11h0c8.28,2.21,13.19,10.72,10.98,19h0c-1.85,6.95-8.12,11.53-14.98,11.53h0c-1.33,0-2.68-.18-4.02-.53ZM162.63,324.96c-.01-8.58,6.93-15.52,15.51-15.54h0c8.58-.01,15.52,6.93,15.53,15.51h0c.01,8.56-6.93,15.52-15.51,15.54h0c-8.58.01-15.52-6.93-15.53-15.51ZM456.83,324.79v-.17h0v-.12h0c-.03-8.58,6.91-15.54,15.48-15.56h0c8.58-.01,15.53,6.92,15.56,15.5h0c0,.07,0,.13-.01.19h0c.01.05.01.1.01.16h0c0,8.56-6.96,15.52-15.53,15.52h0c-8.56,0-15.51-6.96-15.51-15.52ZM487.88,324.44h0ZM179.1,301.87c-8.29-2.2-13.22-10.7-11.02-18.99h0c2.21-8.28,10.71-13.21,19-11.01h0c8.28,2.2,13.21,10.71,11.01,18.99h0c-1.85,6.95-8.12,11.54-14.99,11.54h0c-1.32,0-2.67-.17-4-.53ZM452.31,290.45c-2.22-8.27,2.68-16.79,10.94-19.03h0c8.28-2.23,16.8,2.68,19.03,10.96h0c2.24,8.28-2.66,16.79-10.94,19.03h0c-1.36.36-2.72.54-4.05.54h0c-6.84,0-13.12-4.57-14.98-11.5ZM189.99,264.82c-7.42-4.28-9.97-13.78-5.69-21.2h0c4.29-7.43,13.78-9.97,21.2-5.69h0c7.42,4.29,9.97,13.79,5.69,21.21h0c-2.87,4.98-8.08,7.76-13.45,7.76h0c-2.64,0-5.3-.66-7.75-2.08ZM439.1,258.78h0c-4.31-7.41-1.78-16.92,5.63-21.23h0c7.41-4.31,16.91-1.78,21.21,5.63h0c4.31,7.41,1.8,16.91-5.61,21.21h0c-2.46,1.42-5.15,2.11-7.79,2.11h0c-5.35,0-10.56-2.77-13.44-7.72ZM210.14,231.89c-6.07-6.05-6.08-15.89-.03-21.95h0c6.05-6.07,15.88-6.08,21.95-.03h0c6.07,6.05,6.08,15.89.03,21.95h0c-3.03,3.04-7.01,4.57-10.98,4.57h0c-3.97,0-7.94-1.51-10.97-4.54ZM418.12,231.58c-6.07-6.05-6.09-15.88-.04-21.95h0c6.05-6.08,15.87-6.09,21.95-.04h0c6.07,6.04,6.09,15.87.04,21.95h0c-3.03,3.04-7.01,4.57-10.99,4.57h0c-3.96,0-7.93-1.51-10.96-4.53ZM238.09,205.27c-4.31-7.41-1.78-16.92,5.63-21.21h0c7.41-4.31,16.92-1.78,21.21,5.63h0c4.31,7.41,1.78,16.91-5.63,21.21h0c-2.46,1.42-5.13,2.1-7.77,2.1h0c-5.36,0-10.57-2.77-13.44-7.72ZM390.83,210.69c-7.42-4.28-9.97-13.78-5.69-21.2h0c4.28-7.42,13.77-9.97,21.2-5.7h0c7.42,4.28,9.97,13.78,5.69,21.2h0c-2.87,4.99-8.08,7.77-13.45,7.77h0c-2.64,0-5.3-.66-7.75-2.07ZM271.97,186.75c-2.22-8.28,2.68-16.79,10.96-19.02h0c8.28-2.23,16.79,2.68,19.01,10.96h0c2.22,8.28-2.68,16.79-10.96,19.02h0c-1.35.38-2.7.54-4.04.54h0c-6.86,0-13.12-4.57-14.98-11.5ZM359.11,197.6c-8.29-2.2-13.22-10.7-11.02-18.99h0c2.2-8.28,10.7-13.22,18.98-11.02h0c8.29,2.2,13.22,10.7,11.02,18.99h0c-1.84,6.95-8.12,11.55-14.99,11.54h0c-1.32,0-2.65-.17-3.98-.52ZM309.49,177.7c-.01-8.56,6.92-15.52,15.5-15.54h0c8.58-.03,15.53,6.92,15.55,15.48h0c.01,8.58-6.92,15.54-15.5,15.55h-.03c-8.56,0-15.51-6.93-15.52-15.5Z"/>
    <path class="cls-1" d="M307.92,457.4h0c-6.99-.91-11.92-7.32-11-14.3h0c.91-6.99,7.3-11.92,14.29-11.01h0c6.99.91,11.92,7.32,11.01,14.3h0c-.83,6.43-6.32,11.11-12.64,11.11h0c-.54,0-1.1-.04-1.66-.1ZM328.49,446.36c-.93-6.99,3.99-13.41,10.97-14.33h0c6.98-.92,13.4,3.99,14.32,10.97h0c.93,6.99-3.99,13.41-10.97,14.33h0c-.57.08-1.14.11-1.69.11h0c-6.29,0-11.78-4.67-12.63-11.09ZM274.19,448.38c-6.51-2.7-9.6-10.17-6.9-16.68h0c2.69-6.51,10.15-9.6,16.66-6.9h0c6.52,2.69,9.61,10.15,6.91,16.66h0c-2.03,4.92-6.79,7.88-11.79,7.88h0c-1.63,0-3.28-.32-4.88-.97ZM359.84,441.4c-2.7-6.51.39-13.98,6.9-16.68h0c6.51-2.7,13.98.39,16.68,6.91h0c2.7,6.51-.39,13.98-6.9,16.66h0c-1.6.67-3.25.98-4.88.98h0c-5.01,0-9.75-2.96-11.79-7.88ZM243.96,430.94c-5.59-4.29-6.65-12.3-2.37-17.89h0c4.29-5.6,12.3-6.66,17.89-2.37h0c5.6,4.28,6.66,12.29,2.38,17.89h0c-2.51,3.28-6.31,5.01-10.14,5.01h0c-2.71,0-5.44-.86-7.76-2.64ZM388.84,428.5c-4.3-5.59-3.27-13.6,2.32-17.9h0c5.59-4.3,13.6-3.25,17.9,2.33h0c4.3,5.58,3.25,13.59-2.33,17.89h0c-2.31,1.79-5.06,2.65-7.77,2.65h0c-3.82,0-7.61-1.7-10.12-4.97ZM219.26,406.32c-4.3-5.59-3.27-13.6,2.31-17.9h0c5.59-4.3,13.6-3.27,17.9,2.32h0c4.3,5.58,3.27,13.6-2.32,17.9h0c-2.32,1.78-5.06,2.65-7.77,2.65h0c-3.82,0-7.61-1.72-10.12-4.97ZM413.48,408.49c-5.6-4.29-6.66-12.3-2.37-17.9h0c4.29-5.59,12.3-6.65,17.89-2.36h0c5.6,4.29,6.66,12.3,2.37,17.89h0c-2.51,3.28-6.31,5.01-10.14,5.01h0c-2.71,0-5.44-.86-7.75-2.64ZM201.76,376.11h0c-2.7-6.52.39-13.99,6.9-16.69h0c6.51-2.7,13.98.39,16.68,6.9h0c2.7,6.51-.39,13.98-6.9,16.68h0c-1.6.67-3.25.98-4.88.98h0c-5.01,0-9.75-2.96-11.79-7.87ZM432.14,382.81c-6.51-2.7-9.6-10.17-6.9-16.68h0c2.7-6.51,10.17-9.6,16.68-6.9h0c6.51,2.7,9.6,10.17,6.9,16.68h0c-2.04,4.91-6.79,7.88-11.79,7.88h0c-1.63,0-3.29-.32-4.88-.98ZM192.72,342.4c-.93-6.99,3.97-13.4,10.96-14.33h0c6.99-.92,13.41,3.99,14.33,10.97h0c.93,6.98-3.97,13.4-10.96,14.33h0c-.57.08-1.14.11-1.7.11h0c-6.29,0-11.78-4.67-12.63-11.09ZM443.54,353.17c-6.99-.91-11.92-7.32-11.01-14.3h0c.92-6.99,7.32-11.91,14.32-11h0c6.99.91,11.91,7.32,11,14.31h0c-.85,6.43-6.33,11.11-12.64,11.11h0c-.56,0-1.11-.04-1.67-.11ZM203.66,321.81c-6.99-.91-11.92-7.32-11.01-14.3h0c.9-6.99,7.3-11.92,14.29-11.01h0c6.99.91,11.92,7.3,11.01,14.29h0c-.83,6.43-6.32,11.13-12.64,11.13h0c-.54,0-1.1-.04-1.65-.1ZM432.49,310.62c0-.05-.01-.1-.01-.16h0s-.01-.01-.01-.02h0c-.93-6.99,3.97-13.41,10.96-14.34h0c6.99-.93,13.41,3.97,14.34,10.96h0c.01.1.02.2.04.3h0c.88,6.96-4.02,13.33-11,14.25h0c-.57.06-1.12.1-1.68.1h0c-6.31,0-11.79-4.67-12.64-11.09ZM208.56,290.44c-6.51-2.69-9.6-10.15-6.91-16.66h0c2.7-6.51,10.15-9.61,16.68-6.91h0c6.51,2.69,9.6,10.15,6.91,16.66h0c-2.03,4.92-6.79,7.9-11.79,7.9h0c-1.63,0-3.28-.32-4.88-.98ZM425.14,283.16h-.01c-2.7-6.51.38-13.98,6.89-16.68h0c6.51-2.71,13.98.38,16.69,6.87h0c2.7,6.51-.38,13.98-6.89,16.69h0c-1.6.67-3.27.98-4.89.98h0c-5.01,0-9.75-2.97-11.78-7.87ZM221.45,261.44c-5.6-4.29-6.66-12.3-2.38-17.89h0c4.29-5.6,12.3-6.67,17.89-2.38h0c5.6,4.28,6.67,12.29,2.38,17.89h0c-2.51,3.28-6.31,5.01-10.14,5.01h0c-2.7,0-5.44-.86-7.75-2.62ZM410.97,258.77h0c-4.31-5.59-3.28-13.6,2.3-17.9h0c5.59-4.31,13.6-3.28,17.9,2.31h0c4.31,5.58,3.28,13.59-2.3,17.9h0c-2.32,1.79-5.07,2.65-7.8,2.65h0c-3.81,0-7.59-1.7-10.1-4.96ZM241.38,236.73c-4.31-5.59-3.28-13.6,2.31-17.9h0c5.58-4.31,13.6-3.27,17.9,2.31h0c4.3,5.59,3.27,13.6-2.31,17.9h0c-2.32,1.79-5.07,2.66-7.78,2.66h0c-3.82,0-7.61-1.72-10.12-4.97ZM390.94,238.83h0c-5.6-4.28-6.67-12.29-2.38-17.89h0c4.28-5.6,12.29-6.66,17.89-2.38h0c5.6,4.28,6.67,12.29,2.38,17.89h0c-2.51,3.29-6.31,5.01-10.14,5.01h0c-2.7,0-5.44-.86-7.75-2.62ZM267,218c-2.7-6.51.38-13.98,6.89-16.69h.01c6.5-2.7,13.96.39,16.68,6.9h0c2.7,6.51-.39,13.98-6.9,16.68h0c-1.59.67-3.25.98-4.88.98h0c-5.01,0-9.75-2.97-11.79-7.87ZM366.46,224.74c-6.51-2.7-9.61-10.15-6.91-16.66h0c2.69-6.52,10.15-9.62,16.66-6.92h0c6.51,2.69,9.61,10.15,6.93,16.66h0c-2.04,4.92-6.8,7.9-11.81,7.9h0c-1.63,0-3.27-.32-4.87-.97ZM296.61,206.59c-.93-6.99,3.97-13.4,10.96-14.33h0c6.99-.93,13.41,3.97,14.34,10.96h0c.92,6.99-3.99,13.4-10.96,14.33h0c-.58.08-1.15.11-1.7.11h0c-6.29,0-11.78-4.66-12.64-11.08ZM339.2,217.48c-6.99-.91-11.92-7.3-11.02-14.29h0c.91-6.99,7.3-11.92,14.29-11.01h0c6.99.9,11.92,7.29,11.02,14.28h0c-.83,6.45-6.32,11.14-12.64,11.14h0c-.54,0-1.1-.04-1.65-.11Z"/>
    <path class="cls-1" d="M325.31,435.38h0ZM314.75,424.84c0-5.84,4.72-10.56,10.54-10.57h0c5.84,0,10.56,4.72,10.57,10.56h0c0,5.82-4.72,10.56-10.56,10.56h0c-5.82,0-10.56-4.72-10.56-10.55ZM296.7,431.66c-5.64-1.51-8.99-7.29-7.48-12.92h0c1.5-5.64,7.28-8.99,12.92-7.48h0c5.62,1.5,8.98,7.28,7.48,12.92h0c-1.26,4.72-5.53,7.84-10.19,7.84h0c-.9,0-1.82-.12-2.73-.36ZM341,424.16c-1.51-5.63,1.83-11.41,7.47-12.92h0c5.62-1.51,11.41,1.83,12.92,7.47h0c1.51,5.63-1.83,11.41-7.47,12.92h.01c-.92.25-1.84.36-2.74.36h0c-4.66,0-8.93-3.1-10.19-7.83ZM270.01,420.62c-5.04-2.92-6.77-9.37-3.86-14.43h0c2.92-5.04,9.37-6.78,14.42-3.86h0c5.06,2.92,6.78,9.37,3.86,14.42h0c-1.95,3.39-5.5,5.28-9.15,5.28h0c-1.79,0-3.61-.46-5.27-1.41ZM366.17,416.71c-2.92-5.04-1.2-11.51,3.84-14.43h0c5.04-2.92,11.5-1.2,14.43,3.85h0c2.92,5.04,1.2,11.5-3.85,14.43h0c-1.67.96-3.49,1.42-5.29,1.42h0c-3.63,0-7.18-1.89-9.14-5.27ZM247.11,403.05h0c-4.13-4.12-4.13-10.81-.01-14.94h0c4.12-4.12,10.81-4.13,14.93-.01h0c4.12,4.13,4.13,10.81,0,14.94h0c-2.05,2.06-4.76,3.1-7.47,3.09h0c-2.69,0-5.4-1.03-7.45-3.08ZM388.53,402.98c-4.12-4.13-4.12-10.81,0-14.94h0c4.12-4.12,10.81-4.12,14.93,0h0c4.12,4.12,4.12,10.8,0,14.92h0c-2.06,2.06-4.77,3.1-7.47,3.1h0c-2.71,0-5.4-1.04-7.47-3.09ZM229.52,380.18c-2.93-5.03-1.21-11.5,3.83-14.43h0c5.04-2.92,11.5-1.2,14.43,3.85h0c2.92,5.04,1.21,11.5-3.83,14.43h0c-1.67.96-3.5,1.42-5.29,1.42h0c-3.63,0-7.18-1.88-9.14-5.27ZM406.62,383.94c-5.04-2.92-6.77-9.37-3.86-14.43h0c2.93-5.04,9.38-6.76,14.43-3.85h0c5.04,2.92,6.78,9.37,3.86,14.42h0c-1.97,3.39-5.5,5.28-9.15,5.28h0c-1.79,0-3.61-.46-5.28-1.42ZM218.43,353.52c-1.51-5.64,1.83-11.42,7.47-12.93h0c5.62-1.51,11.41,1.83,12.92,7.45h0c1.51,5.63-1.82,11.42-7.46,12.93h0c-.92.25-1.84.36-2.74.36h0c-4.66,0-8.93-3.1-10.19-7.81ZM419.18,360.87c-5.64-1.5-8.98-7.28-7.48-12.92h0c1.51-5.64,7.29-8.98,12.93-7.47h0c5.62,1.5,8.98,7.28,7.47,12.92h0c-1.26,4.71-5.53,7.83-10.19,7.83h0c-.9,0-1.82-.11-2.73-.36ZM214.66,324.9c-.01-5.82,4.71-10.56,10.54-10.56h0c5.84-.01,10.56,4.71,10.57,10.55h0c0,5.82-4.72,10.56-10.55,10.56h0c-5.84.01-10.56-4.71-10.57-10.55ZM414.73,324.79v-.11h0v-.09h0c-.01-5.84,4.7-10.57,10.53-10.58h0c5.84-.01,10.56,4.71,10.58,10.53h0s-.01.1-.01.14h0s.01.07.01.11h0c0,5.82-4.73,10.56-10.56,10.56h0c-5.84,0-10.56-4.74-10.56-10.56ZM435.85,324.54h0ZM225.86,309.21c-5.64-1.51-8.99-7.28-7.49-12.92h0c1.5-5.64,7.28-8.99,12.91-7.49h0c5.64,1.51,9,7.28,7.49,12.92h0c-1.25,4.72-5.53,7.85-10.19,7.85h0c-.9,0-1.82-.12-2.72-.36ZM411.65,301.44c-1.52-5.63,1.82-11.42,7.44-12.94h0c5.64-1.51,11.42,1.82,12.94,7.46h0c1.52,5.63-1.82,11.41-7.44,12.93h0c-.93.25-1.84.37-2.76.37h0c-4.65,0-8.91-3.1-10.19-7.81ZM233.27,284.02c-5.04-2.92-6.79-9.37-3.87-14.42h0c2.92-5.06,9.37-6.79,14.42-3.87h0c5.06,2.91,6.79,9.37,3.87,14.42h0c-1.95,3.39-5.5,5.28-9.15,5.28h0c-1.79,0-3.61-.46-5.27-1.41ZM402.68,279.9c-2.93-5.04-1.22-11.51,3.82-14.44h0c5.03-2.92,11.5-1.21,14.43,3.83h0c2.93,5.03,1.22,11.5-3.82,14.43h0c-1.67.96-3.5,1.43-5.29,1.43h0c-3.64,0-7.18-1.89-9.14-5.25ZM246.97,261.61c-4.13-4.1-4.13-10.79-.01-14.92h0c4.12-4.13,10.79-4.14,14.92-.03h0c4.13,4.12,4.14,10.81.03,14.94h0c-2.06,2.06-4.77,3.1-7.48,3.1h0c-2.69,0-5.39-1.03-7.45-3.09ZM388.41,261.39c-4.14-4.11-4.15-10.79-.04-14.92h0c4.12-4.13,10.81-4.14,14.93-.02h0c4.13,4.11,4.14,10.79.02,14.92h0c-2.06,2.08-4.77,3.1-7.48,3.1h0c-2.69,0-5.39-1.03-7.44-3.08ZM265.98,243.5c-2.93-5.03-1.21-11.5,3.83-14.43h0c5.03-2.92,11.5-1.2,14.43,3.83h0c2.92,5.04,1.2,11.51-3.83,14.43h0c-1.67.98-3.5,1.43-5.29,1.43h0c-3.65,0-7.18-1.88-9.14-5.27ZM369.85,247.2h0c-5.06-2.92-6.8-9.37-3.88-14.42h0c2.9-5.06,9.37-6.79,14.42-3.88h0c5.06,2.91,6.79,9.37,3.88,14.42h0c-1.95,3.39-5.5,5.29-9.16,5.29h0c-1.78,0-3.6-.46-5.25-1.41ZM289.01,230.92c-1.51-5.63,1.83-11.42,7.46-12.93h0c5.62-1.52,11.42,1.82,12.93,7.46h0c1.51,5.63-1.82,11.41-7.46,12.93h0c-.92.25-1.83.36-2.74.36h0c-4.66,0-8.91-3.1-10.19-7.81ZM348.27,238.3h0c-5.64-1.5-8.99-7.28-7.49-12.91h0c1.5-5.64,7.27-9,12.91-7.5h0c5.64,1.5,8.99,7.28,7.49,12.91h0c-1.25,4.74-5.51,7.86-10.19,7.86h0c-.9,0-1.8-.12-2.72-.36ZM314.53,224.77c-.01-5.84,4.71-10.57,10.55-10.58h0c5.82,0,10.56,4.72,10.57,10.55h0c.01,5.84-4.71,10.57-10.54,10.57h-.01c-5.82,0-10.54-4.71-10.56-10.53Z"/>
    <path class="cls-1" d="M313.41,415.47c-4.79-.62-8.16-4.99-7.54-9.78h0c.63-4.77,5-8.14,9.78-7.52h0c4.79.62,8.16,4.99,7.54,9.78h0c-.57,4.4-4.33,7.6-8.64,7.6h0c-.38,0-.76-.02-1.14-.07ZM327.47,407.92c-.63-4.77,2.73-9.16,7.51-9.79h0c4.77-.64,9.16,2.73,9.79,7.5h0c.63,4.77-2.73,9.16-7.5,9.8h0c-.39.05-.78.07-1.16.07h0c-4.31,0-8.06-3.2-8.64-7.59ZM290.34,409.3c-4.46-1.83-6.57-6.94-4.73-11.39h0c1.84-4.46,6.94-6.57,11.4-4.73h0c4.45,1.84,6.57,6.94,4.73,11.4h0c-1.39,3.36-4.64,5.39-8.07,5.39h0c-1.1,0-2.24-.22-3.33-.68ZM348.9,404.54c-1.84-4.46.27-9.56,4.73-11.4h0c4.46-1.85,9.56.27,11.4,4.71h0c1.84,4.46-.27,9.56-4.72,11.4h0c-1.09.46-2.22.67-3.33.67h0c-3.43,0-6.68-2.02-8.07-5.38ZM269.67,397.39c-3.82-2.93-4.54-8.41-1.62-12.24h0c2.93-3.82,8.41-4.56,12.24-1.62h0c3.83,2.93,4.56,8.41,1.62,12.24h0c-1.72,2.24-4.31,3.42-6.93,3.42h0c-1.85,0-3.72-.58-5.31-1.79ZM368.74,395.7c-2.95-3.82-2.23-9.29,1.59-12.24h0c3.83-2.94,9.31-2.23,12.24,1.6h0c2.94,3.82,2.23,9.29-1.59,12.23h0c-1.59,1.22-3.46,1.82-5.32,1.82h0c-2.62,0-5.2-1.18-6.92-3.41ZM252.78,380.54h0c-2.94-3.82-2.23-9.29,1.59-12.24h0c3.82-2.95,9.29-2.23,12.24,1.59h0c2.93,3.82,2.23,9.29-1.59,12.24h0c-1.59,1.22-3.46,1.82-5.32,1.82h0c-2.62,0-5.2-1.18-6.92-3.41ZM385.58,382.02c-3.82-2.93-4.54-8.41-1.61-12.24h0c2.93-3.82,8.41-4.54,12.24-1.61h0c3.82,2.93,4.54,8.41,1.61,12.23h0c-1.72,2.24-4.31,3.43-6.93,3.43h0c-1.85,0-3.72-.59-5.31-1.81ZM240.8,359.88h0c-1.84-4.45.27-9.55,4.71-11.4h0c4.46-1.84,9.56.27,11.41,4.71h0c1.84,4.46-.27,9.56-4.72,11.41h0c-1.09.45-2.22.67-3.33.67h0c-3.43,0-6.68-2.04-8.07-5.39ZM398.35,364.46c-4.46-1.84-6.57-6.96-4.72-11.4h0c1.85-4.45,6.96-6.57,11.4-4.73h0c4.46,1.85,6.57,6.96,4.72,11.4h0c-1.39,3.37-4.64,5.39-8.07,5.39h0c-1.11,0-2.24-.21-3.33-.67ZM234.62,336.85c-.64-4.77,2.71-9.17,7.5-9.8h0c4.77-.64,9.16,2.73,9.8,7.5h0c.63,4.77-2.73,9.16-7.5,9.8h0c-.4.05-.79.07-1.16.07h0c-4.31,0-8.06-3.19-8.64-7.57ZM406.14,344.2c-4.77-.62-8.14-5-7.52-9.78h0c.63-4.79,5-8.16,9.78-7.52h0c4.79.62,8.16,5,7.52,9.78h0c-.57,4.4-4.32,7.6-8.64,7.6h0c-.38,0-.75-.02-1.14-.07ZM242.1,322.77c-4.77-.63-8.16-5-7.54-9.78h0c.63-4.79,5-8.15,9.78-7.54h0c4.77.62,8.15,4.99,7.54,9.78h0c-.57,4.4-4.32,7.61-8.65,7.61h0c-.38,0-.75-.02-1.13-.07ZM398.59,315.11s-.01-.05-.01-.07h0s-.01-.05-.01-.09h0c-.64-4.77,2.71-9.16,7.49-9.8h0c4.79-.64,9.17,2.71,9.81,7.49h0s.01.1.01.15h0s.01.02.01.04h0c.63,4.77-2.74,9.16-7.51,9.79h0c-.39.05-.78.08-1.15.08h0c-4.31-.01-8.06-3.2-8.64-7.59ZM245.45,301.32c-4.45-1.84-6.57-6.96-4.73-11.4h0c1.84-4.46,6.94-6.57,11.4-4.73h0c4.45,1.84,6.57,6.94,4.73,11.39h0c-1.39,3.37-4.64,5.4-8.07,5.4h0c-1.1,0-2.24-.22-3.33-.67ZM393.55,296.31c-1.85-4.46.25-9.56,4.7-11.41h0c4.45-1.85,9.56.25,11.4,4.7h0c1.85,4.46-.25,9.56-4.7,11.41h0c-1.09.45-2.23.67-3.34.67h0c-3.42,0-6.66-2.02-8.06-5.37ZM254.25,281.47c-3.83-2.92-4.56-8.4-1.62-12.23h0c2.92-3.83,8.4-4.56,12.23-1.64h0c3.83,2.93,4.56,8.41,1.64,12.24h0c-1.72,2.24-4.31,3.43-6.94,3.43h0c-1.84,0-3.71-.59-5.3-1.81ZM383.86,279.63c-2.94-3.82-2.24-9.29,1.58-12.25h0c3.82-2.93,9.29-2.23,12.24,1.58h0c2.94,3.82,2.24,9.29-1.57,12.24h0c-1.59,1.24-3.47,1.83-5.32,1.83h0c-2.62,0-5.2-1.18-6.92-3.39ZM267.87,264.58c-2.94-3.82-2.23-9.29,1.59-12.24h0c3.82-2.94,9.29-2.24,12.24,1.58h0c2.94,3.82,2.24,9.29-1.57,12.24h0c-1.59,1.22-3.47,1.82-5.33,1.82h0c-2.61,0-5.2-1.16-6.92-3.39ZM370.17,266c-3.83-2.92-4.57-8.4-1.64-12.23h0c2.92-3.83,8.4-4.57,12.23-1.64h0c3.83,2.92,4.57,8.41,1.64,12.24h0c-1.72,2.24-4.31,3.42-6.94,3.42h0c-1.84,0-3.71-.58-5.28-1.79ZM285.41,251.76c-1.85-4.45.25-9.55,4.7-11.4h0c4.45-1.84,9.56.25,11.42,4.71h0c1.84,4.45-.27,9.56-4.71,11.4h0c-1.1.46-2.23.68-3.34.68h0c-3.43-.01-6.66-2.04-8.06-5.39ZM353.42,256.36h0c-4.46-1.83-6.58-6.94-4.74-11.39h0c1.84-4.46,6.94-6.58,11.4-4.74h0c4.45,1.84,6.57,6.94,4.73,11.4h0c-1.38,3.36-4.64,5.39-8.07,5.39h0c-1.1,0-2.23-.21-3.32-.67ZM305.65,243.97c-.64-4.77,2.71-9.17,7.49-9.8h0c4.79-.64,9.17,2.71,9.8,7.49h0c.64,4.79-2.71,9.17-7.49,9.8h0c-.39.06-.79.09-1.16.09h0c-4.31,0-8.06-3.19-8.64-7.57ZM334.77,251.41h0c-4.77-.62-8.15-4.99-7.54-9.78h0c.62-4.77,4.99-8.14,9.77-7.54h0c4.79.62,8.16,4.99,7.54,9.78h0c-.56,4.4-4.31,7.61-8.64,7.61h0c-.38,0-.75-.02-1.13-.07Z"/>
    <path class="cls-1" d="M318.24,391.95c-.01-3.92,3.16-7.09,7.07-7.1h0c3.92,0,7.09,3.16,7.1,7.08h0c0,3.91-3.16,7.09-7.08,7.09h0c-3.91.01-7.09-3.16-7.09-7.07ZM306.12,396.51c-3.79-1.02-6.02-4.9-5.02-8.68h0c1.02-3.78,4.9-6.02,8.68-5.01h0c3.78,1.01,6.02,4.89,5.01,8.67h0c-.84,3.17-3.71,5.25-6.83,5.25h0c-.61,0-1.23-.07-1.84-.23ZM335.85,391.46c-1.02-3.78,1.23-7.66,5.01-8.68h0c3.77-1.02,7.66,1.22,8.68,4.99h0c1.01,3.78-1.23,7.66-5.01,8.68h0c-.62.18-1.23.25-1.84.25h0c-3.13,0-5.99-2.08-6.84-5.24ZM288.22,389.11c-3.39-1.95-4.55-6.28-2.61-9.67h0c1.95-3.39,6.28-4.55,9.67-2.61h0c3.39,1.95,4.56,6.29,2.61,9.68h0c-1.31,2.28-3.7,3.56-6.15,3.56h0c-1.19,0-2.41-.3-3.52-.95ZM352.74,386.47c-1.95-3.39-.8-7.73,2.59-9.69h0c3.39-1.95,7.72-.8,9.69,2.6h0c1.95,3.38.8,7.72-2.6,9.67h0c-1.11.64-2.33.95-3.53.95h0c-2.44,0-4.83-1.26-6.14-3.53ZM325.31,384.85h0ZM272.84,377.35h0c-2.77-2.76-2.78-7.24-.02-10.01h0c2.76-2.77,7.25-2.78,10.02-.02h0c2.77,2.76,2.77,7.24.01,10.01h0c-1.38,1.39-3.19,2.09-5.02,2.09h0c-1.8,0-3.61-.69-5-2.07ZM367.76,377.26c-2.77-2.76-2.77-7.25-.01-10.02h-.01c2.77-2.77,7.25-2.77,10.03-.01h0c2.77,2.76,2.77,7.24.01,10.01h0c-1.38,1.39-3.19,2.08-5.02,2.08h0c-1.8,0-3.61-.68-4.99-2.06ZM261.02,362c-1.95-3.39-.8-7.72,2.59-9.69h0c3.39-1.95,7.72-.8,9.69,2.59h0c1.95,3.39.8,7.72-2.59,9.69h0c-1.12.64-2.34.95-3.54.95h0c-2.45,0-4.82-1.26-6.14-3.53ZM379.87,364.46c-3.39-1.95-4.55-6.28-2.6-9.68h0c1.95-3.39,6.29-4.55,9.67-2.6h0c3.39,1.95,4.55,6.29,2.6,9.67h0c-1.31,2.28-3.68,3.54-6.14,3.54h0c-1.19,0-2.41-.3-3.53-.95ZM253.6,344.12c-1.02-3.78,1.22-7.66,5-8.68h0c3.78-1.02,7.66,1.22,8.68,5h0c1.02,3.78-1.22,7.66-4.99,8.68h0c-.61.17-1.23.25-1.85.25h0c-3.12,0-5.98-2.08-6.83-5.24ZM388.28,348.98c-3.78-1.02-6.02-4.9-5.01-8.68h0c1.02-3.78,4.9-6.01,8.68-5.01h0c3.78,1.02,6.02,4.9,5.01,8.68h0c-.85,3.17-3.71,5.25-6.84,5.25h0c-.61,0-1.22-.08-1.84-.25ZM251.02,324.93c-.01-3.92,3.15-7.1,7.07-7.1h0c3.91-.01,7.09,3.15,7.1,7.07h0c.01,3.91-3.16,7.09-7.07,7.1h-.02c-3.91,0-7.08-3.16-7.08-7.07ZM385.32,324.78c0-3.92,3.17-7.09,7.08-7.09h0c3.91-.01,7.09,3.16,7.09,7.08h0c0,3.91-3.16,7.09-7.08,7.09h0c-3.92,0-7.09-3.17-7.09-7.08ZM258.53,314.38c-3.78-1.01-6.02-4.89-5.02-8.67h0c1.01-3.78,4.89-6.02,8.67-5.02h0c3.78,1.01,6.02,4.89,5.02,8.67h0c-.84,3.17-3.71,5.26-6.83,5.26h0c-.61,0-1.23-.08-1.84-.25ZM383.25,309.23s0-.04-.01-.06h0s-.02-.08-.04-.12h0c-1.02-3.78,1.21-7.67,4.98-8.69h0c3.78-1.03,7.66,1.2,8.69,4.97h0s.02.09.04.14h0s.02.06.02.09h0c1.02,3.78-1.23,7.66-5.01,8.68h0c-.61.16-1.23.23-1.84.23h0c-3.12,0-5.99-2.08-6.84-5.25ZM263.52,297.49c-3.39-1.95-4.56-6.28-2.62-9.68h0c1.95-3.39,6.28-4.56,9.67-2.61h0c3.39,1.94,4.56,6.27,2.61,9.66h0c-1.31,2.28-3.68,3.56-6.14,3.56h0c-1.19,0-2.41-.3-3.52-.94ZM377.18,294.59c-1.97-3.38-.82-7.72,2.56-9.69h0c3.38-1.96,7.72-.81,9.69,2.57h0c1.96,3.38.82,7.72-2.57,9.69h0c-1.11.64-2.34.96-3.54.96h0c-2.45,0-4.82-1.26-6.13-3.53ZM272.68,282.44c-2.77-2.76-2.78-7.25-.04-10.03h0c2.76-2.77,7.24-2.78,10.03-.03h0c2.77,2.76,2.78,7.25.02,10.02h0c-1.38,1.39-3.2,2.09-5.02,2.09h0c-1.81,0-3.61-.69-4.99-2.06ZM367.6,282.2c-2.77-2.76-2.8-7.24-.03-10.01h0c2.75-2.79,7.24-2.8,10.01-.05h0c2.78,2.76,2.8,7.24.05,10.01h0c-1.39,1.4-3.21,2.09-5.03,2.09h0c-1.8,0-3.61-.68-5-2.05ZM285.41,270.26c-1.95-3.38-.81-7.72,2.59-9.69h0c3.38-1.95,7.72-.81,9.67,2.59h0c1.96,3.38.82,7.72-2.57,9.67h0c-1.11.65-2.34.96-3.54.96h0c-2.44,0-4.82-1.26-6.14-3.53ZM355.13,272.7c-3.39-1.94-4.56-6.28-2.62-9.67h0c1.95-3.39,6.28-4.56,9.67-2.62h0c3.39,1.95,4.56,6.28,2.62,9.67h0c-1.31,2.28-3.7,3.56-6.15,3.56h0c-1.19,0-2.41-.3-3.52-.94ZM300.87,261.83c-1.02-3.78,1.22-7.66,5-8.68h0c3.78-1.03,7.66,1.21,8.69,4.98h0c1.02,3.78-1.22,7.66-4.99,8.69h0c-.62.16-1.24.25-1.85.25h0c-3.12,0-5.99-2.08-6.84-5.24ZM340.63,266.73c-3.78-1.01-6.04-4.89-5.03-8.67h0c1.01-3.78,4.89-6.04,8.67-5.03h0c3.78,1.01,6.04,4.89,5.03,8.67h0c-.84,3.17-3.71,5.26-6.84,5.26h0c-.61,0-1.22-.07-1.82-.23ZM318,257.66c-.01-3.92,3.15-7.1,7.05-7.11h0c3.92-.01,7.1,3.15,7.11,7.07h0c.01,3.91-3.15,7.09-7.07,7.1h-.02c-3.9,0-7.07-3.16-7.08-7.05Z"/>
  </g>
</svg>